<svg width="32" height="32" viewBox="0 0 32 32" fill="none" xmlns="http://www.w3.org/2000/svg">
<path fill-rule="evenodd" clip-rule="evenodd" d="M29.3333 5.34668C28 6.00002 26.6933 6.26535 25.3333 6.66668C23.8386 4.98002 21.6226 4.88668 19.4933 5.68402C17.364 6.48135 15.9693 8.43068 16 10.6667V12C11.6733 12.1107 7.81997 10.14 5.33331 6.66668C5.33331 6.66668 -0.242692 16.5774 10.6666 21.3334C8.17064 22.996 5.68131 24.1174 2.66664 24C7.07731 26.404 11.884 27.2307 16.0453 26.0227C20.8186 24.636 24.7413 21.0587 26.2466 15.7C26.6957 14.0702 26.9187 12.3865 26.9093 10.696C26.9066 10.364 28.9226 7.00002 29.3333 5.34535V5.34668Z" stroke="white" stroke-linecap="round" stroke-linejoin="round"/>
</svg>
